HIERARCHY
ROOT pelvis
{
  OFFSET 0 100 0
  CHANNELS 6 Xposition Yposition Zposition Zrotation Xrotation Yrotation
  JOINT pelvis_right_femur
  {
    OFFSET -10.78128 -3.44521 -0.5502486
    CHANNELS 3 Zrotation Xrotation Yrotation
    JOINT right_femur_tibia
    {
      OFFSET -0.8047443 -44.0398 -0.1307829
      CHANNELS 3 Zrotation Xrotation Yrotation
      JOINT right_tibia_foot
      {
        OFFSET 3.006224 -47.83518 -5
        CHANNELS 3 Zrotation Xrotation Yrotation
        End Site
        {
          OFFSET 0 -5 15
        }
      }
    }
  }
  JOINT pelvis_left_femur
  {
    OFFSET 10.78128 -3.44521 -0.5502486
    CHANNELS 3 Zrotation Xrotation Yrotation
    JOINT left_femur_tibia
    {
      OFFSET 0.8047443 -44.0398 -0.1307829
      CHANNELS 3 Zrotation Xrotation Yrotation
      JOINT left_tibia_foot
      {
        OFFSET -4.370144 -48.10324 -4.275266
        CHANNELS 3 Zrotation Xrotation Yrotation
        End Site
        {
          OFFSET 0 -5 15
        }
      }
    }
  }
  JOINT pelvis_spine1
  {
    OFFSET 0 6.468898 -3.129235
    CHANNELS 3 Zrotation Xrotation Yrotation
    JOINT spine1
    {
      OFFSET 0 23.15396 4.99043
      CHANNELS 3 Zrotation Xrotation Yrotation
      JOINT spine2
      {
        OFFSET 0 20.79997 -5.064912
        CHANNELS 3 Zrotation Xrotation Yrotation
        JOINT neck
        {
          OFFSET 0 14.38658 9.616178
          CHANNELS 3 Zrotation Xrotation Yrotation
          End Site
          {
            OFFSET 0 20 0
          }
        }
      }
      JOINT right_manubrium
      {
        OFFSET -5.722621 16.35077 3.967754
        CHANNELS 3 Zrotation Xrotation Yrotation
        JOINT right_clavicle
        {
          OFFSET -13.16364 1.694482 -4.693211
          CHANNELS 3 Zrotation Xrotation Yrotation
          JOINT right_humerus
          {
            OFFSET -28.5034 -0.3100689 -2.792744
            CHANNELS 3 Zrotation Xrotation Yrotation
            JOINT right_radius
            {
              OFFSET -25.15693 0.02248979 -1.271978
              CHANNELS 3 Zrotation Xrotation Yrotation
              End Site
              {
                OFFSET -15 0 0
              }
            }
          }
        }
      }
      JOINT left_manubrium
      {
        OFFSET 5.722621 16.35077 3.967754
        CHANNELS 3 Zrotation Xrotation Yrotation
        JOINT left_clavicle
        {
          OFFSET 13.16364 1.694482 -4.693211
          CHANNELS 3 Zrotation Xrotation Yrotation
          JOINT left_humerus
          {
            OFFSET 29.39168 -1.063119 -2.237045
            CHANNELS 3 Zrotation Xrotation Yrotation
            JOINT left_radius
            {
              OFFSET 24.59957 -0.9528479 0.9047498
              CHANNELS 3 Zrotation Xrotation Yrotation
              End Site
              {
                OFFSET 15 -0 -0
              }
            }
          }
        }
      }
    }
  }
}
MOTION
Frames: 11
Frame Time: 0.0416666666667
0 103.5113 0 1.420626 -1.193881 -0.1399825 2.675651 -13.60592 7.994531 -0 35.57016 -0 -6.956 -14.69867 -4.334424 -7.349619 10.71914 -24.53311 -0 5.432732 -0 2.409172 -20.38679 24.42643 -3.944654 -3.828101 4.10264 2.361206 9.202991 -8.513184 0.4430348 22.76292 7.690816 4.227096 -23.59734 7.754094 7.263488 -20.37162 11.92093 86.2512 37.11732 -21.99839 -0 0 16.81058 -9.224478 8.962453 6.684796 4.154382 -19.37437 -3.439767 -101.1411 39.69045 30.27348 0 0 -19.78531 -11.80599 16.35156 28.45232
0.2271136 103.8231 0.9474037 1.334518 -1.549319 -0.2646856 2.591012 -13.23986 7.918701 -0 37.08583 -0 -7.252853 -14.81584 -4.626641 -7.181643 10.97541 -23.82149 -0 5.65224 -0 2.687077 -19.65428 24.16425 -3.975147 -3.826189 3.804469 2.459688 9.309184 -8.691174 0.3542379 22.91524 7.531258 3.956387 -23.37581 7.622081 7.077471 -20.19668 11.92138 86.53825 36.77806 -22.01223 -0 0 16.15575 -9.418499 8.730758 6.8711 3.867686 -19.4997 -3.519777 -99.79944 39.09329 28.88305 0 0 -19.68531 -10.81417 16.29985 27.1896
0.4578354 103.5595 2.608324 0.7912651 0.2257428 -0.1415872 3.71515 -21.97017 7.591984 -0 28.6363 -0 -5.24098 -12.64875 -4.136621 -6.641505 12.61226 -24.07379 -0 4.547232 -0 -0.2936569 -24.64848 21.65872 -3.610869 -2.036472 4.125218 2.375925 7.423029 -7.661083 1.450304 22.19201 7.796177 4.178394 -24.51345 9.334575 6.09741 -18.96463 10.9779 86.04006 35.34336 -21.43716 -0 0 16.60578 -7.630575 9.120361 4.837211 5.675599 -19.08001 -2.210414 -99.39838 39.19734 27.46861 0 0 -21.41145 -8.965049 16.40488 25.56733
0.6131061 103.1443 4.941301 0.1467427 1.415351 0.2350356 4.665673 -27.00236 7.07638 -0 25.09718 -0 -5.145007 -10.20369 -3.968948 -5.949207 14.07829 -23.05224 -0 4.843362 -0 -2.04302 -26.10482 19.48367 -3.232216 -1.104041 3.644951 2.549537 6.59045 -7.567314 1.697362 21.77174 8.019429 4.258791 -25.19438 9.926181 5.75695 -17.88576 10.63466 86.27366 35.37514 -21.52929 -0 0 15.37901 -7.302915 9.487928 4.392675 6.291051 -19.26381 -1.64457 -97.34896 38.28912 24.84048 0 0 -22.59926 -6.805342 16.33215 23.21715
0.6451006 102.779 8.243873 -0.8791121 2.840822 0.8567578 6.043645 -31.95842 6.347111 -0 21.74749 -0 -5.846049 -6.928509 -3.755156 -4.913929 15.86807 -21.16739 -0 6.822365 -0 -4.341646 -26.134 16.43207 -2.472492 -0.2534386 2.692965 2.852928 5.933563 -7.820242 1.65162 21.2634 8.313264 4.369511 -25.915 10.15986 5.644899 -16.53002 10.46013 86.8317 36.04441 -21.96857 -0 0 13.20255 -7.508017 10.07805 4.527364 6.586044 -19.68782 -1.28659 -94.48222 36.6871 21.42426 0 0 -23.91691 -4.258819 15.94446 20.40145
0.5678641 102.5887 12.48384 -1.902384 3.605455 1.559926 7.238541 -34.273 5.629523 -0 19.82901 -0 -6.899742 -4.706683 -3.687744 -3.916447 17.15322 -18.9516 -0 10.99823 -0 -6.471053 -24.18318 13.55316 -1.511619 0.2110346 1.692988 3.126423 5.694404 -8.235695 1.399548 20.97692 8.427539 4.312127 -26.15912 9.933322 5.612963 -15.35359 10.46771 87.54489 36.53262 -22.4779 -0 0 10.93236 -8.228763 10.61501 5.133953 6.35108 -20.05497 -1.341654 -91.89364 34.87936 18.44819 0 0 -24.62271 -2.274074 15.30575 18.15928
0.4318858 102.7354 17.60077 -2.79731 3.641476 2.135868 8.178545 -33.76056 4.954574 -0 18.95988 -0 -7.876133 -3.865841 -3.760487 -3.063083 17.45583 -16.61701 -0 18.06014 -0 -8.414861 -20.46768 11.05671 -0.3961056 0.4017491 0.9352396 3.309033 5.782448 -8.596741 1.079736 20.92035 8.348116 4.088606 -25.94677 9.427448 5.585863 -14.4068 10.59964 88.21493 36.58731 -22.80748 -0 0 8.948536 -9.266837 11.11641 5.970138 5.700361 -20.17201 -1.683346 -89.97732 33.03012 16.33838 0 0 -24.50054 -0.8973353 14.47523 16.60996
0.3081237 103.3395 23.37102 -3.274267 2.9113 2.385364 8.592566 -30.30397 4.34634 -0 18.83654 -0 -8.384748 -4.522256 -3.931882 -2.564223 16.16442 -14.53308 -0 27.71991 -0 -9.898176 -15.74496 9.400418 0.5916073 0.4087556 0.7824269 3.328839 6.160887 -8.695169 0.8220537 21.11319 8.084958 3.771629 -25.32448 8.811163 5.545728 -13.84662 10.81903 88.62293 36.162 -22.75857 -0 0 7.68811 -10.43065 11.56075 6.801067 4.832093 -19.97168 -2.15168 -89.0687 31.47968 15.50248 0 0 -23.55839 -0.2490029 13.59393 15.92382
0.2466163 104.4698 29.48414 -3.170973 1.598793 2.224392 8.375063 -24.47982 3.799933 -0 18.89107 -0 -8.369203 -6.189773 -4.035415 -2.502752 12.91531 -12.83011 -0 39.2265 -0 -10.77927 -10.92184 8.717863 1.17445 0.3811542 1.394861 3.169769 6.773472 -8.438555 0.6876253 21.51011 7.701632 3.482369 -24.4496 8.196428 5.522314 -13.70176 11.10621 88.66463 35.53356 -22.27846 -0 0 7.203426 -11.61745 11.95221 7.507585 3.972422 -19.58949 -2.567104 -89.04175 30.25715 15.80742 0 0 -22.14364 -0.0650741 12.75443 15.77827
0.2547325 106.0762 35.59527 -2.481685 0.05280923 1.727034 7.571307 -17.47502 3.308581 -0 18.44426 -0 -8.056473 -8.036533 -3.839081 -2.820876 7.714001 -11.51739 -0 50.73507 -0 -10.94802 -7.020894 8.941493 1.131269 0.4547184 2.691106 2.859522 7.540576 -7.863553 0.6628479 22.00496 7.300005 3.361964 -23.5451 7.61665 5.580192 -13.95154 11.45733 88.28146 35.19153 -21.39768 -0 0 7.360653 -12.80256 12.28908 8.093757 3.337522 -19.29833 -2.810106 -89.54354 29.23947 16.84728 0 0 -20.8247 0.02858614 12.04324 15.68515
0.3053034 107.9531 41.4178 -1.396484 -1.348484 1.069463 6.398871 -10.62794 2.816697 -0 16.94087 -0 -7.8341 -9.369 -3.203381 -3.262033 0.9355176 -10.42927 -0 59.78999 -0 -10.36619 -4.722315 9.84117 0.4500125 0.713656 4.349771 2.459072 8.352983 -7.109478 0.6717826 22.47135 6.974038 3.484177 -22.79779 7.042091 5.738828 -14.54371 11.87018 87.41432 35.53563 -20.08441 -0 0 7.975168 -14.0423 12.54659 8.68136 3.049495 -19.33382 -2.867724 -90.12469 28.20353 18.10303 0 0 -20.04463 0.3989733 11.51189 15.14769
